<svg xmlns="http://www.w3.org/2000/svg" width="120" height="120" viewBox="0 0 120 120" fill="none">
  <circle cx="60" cy="60" r="60" fill="#F0F4FF" />
  
  <!-- Server 1 -->
  <rect x="24" y="36" width="32" height="48" rx="3" fill="#1A365D" />
  <rect x="28" y="42" width="24" height="4" rx="1" fill="#4FD1C5" />
  <rect x="28" y="50" width="24" height="4" rx="1" fill="#4FD1C5" />
  <rect x="28" y="58" width="24" height="4" rx="1" fill="#4FD1C5" />
  <rect x="28" y="66" width="24" height="4" rx="1" fill="#4FD1C5" />
  <circle cx="40" cy="80" r="2" fill="#4FD1C5" />
  
  <!-- Server 2 -->
  <rect x="64" y="36" width="32" height="48" rx="3" fill="#1A365D" />
  <rect x="68" y="42" width="24" height="4" rx="1" fill="#4FD1C5" />
  <rect x="68" y="50" width="24" height="4" rx="1" fill="#4FD1C5" />
  <rect x="68" y="58" width="24" height="4" rx="1" fill="#4FD1C5" />
  <rect x="68" y="66" width="24" height="4" rx="1" fill="#4FD1C5" />
  <circle cx="80" cy="80" r="2" fill="#4FD1C5" />
  
  <!-- Connecting arrows -->
  <path d="M56 48H64" stroke="#1A365D" stroke-width="3" stroke-linecap="round" />
  <path d="M64 72H56" stroke="#1A365D" stroke-width="3" stroke-linecap="round" />
  
  <!-- Arrow heads -->
  <path d="M64 48L58 44L58 52" stroke="#1A365D" stroke-width="3" stroke-linecap="round" stroke-linejoin="round" />
  <path d="M56 72L62 76L62 68" stroke="#1A365D" stroke-width="3" stroke-linecap="round" stroke-linejoin="round" />
  
  <!-- Network globe icon -->
  <circle cx="60" cy="28" r="12" fill="#4FD1C5" stroke="#1A365D" stroke-width="2" />
  <path d="M60 16V40" stroke="#1A365D" stroke-width="2" />
  <path d="M48 28H72" stroke="#1A365D" stroke-width="2" />
  <path d="M50 22C54 32 66 32 70 22" stroke="#1A365D" stroke-width="2" />
  <path d="M50 34C54 24 66 24 70 34" stroke="#1A365D" stroke-width="2" />
</svg>