<svg viewBox="0 0 800 600" xmlns="http://www.w3.org/2000/svg">
  <!-- Background -->
  <rect width="800" height="600" fill="#f5f7fa" />
  
  <!-- Header -->
  <rect x="0" y="0" width="800" height="60" fill="#2c3e50" />
  <text x="30" y="38" font-family="Arial" font-size="22" fill="white" font-weight="bold">REDIACC</text>
  
  <!-- User Info -->
  <circle cx="760" cy="30" r="20" fill="#4a7aff" />
  <text x="760" y="35" font-family="Arial" font-size="14" text-anchor="middle" fill="white">A</text>
  
  <!-- Sidebar Navigation -->
  <rect x="0" y="60" width="200" height="540" fill="#2c3e50" />
  
  <!-- Navigation Items -->
  <rect x="0" y="110" width="200" height="40" fill="#3498db" />
  <text x="20" y="135" font-family="Arial" font-size="14" fill="white">Dashboard</text>
  
  <text x="20" y="175" font-family="Arial" font-size="14" fill="#b8c2cc">Infrastructure</text>
  <text x="20" y="215" font-family="Arial" font-size="14" fill="#b8c2cc">Team Management</text>
  <text x="20" y="255" font-family="Arial" font-size="14" fill="#b8c2cc">Resources</text>
  <text x="20" y="295" font-family="Arial" font-size="14" fill="#b8c2cc">Operations</text>
  <text x="20" y="335" font-family="Arial" font-size="14" fill="#b8c2cc">Administration</text>
  
  <!-- Page Title -->
  <text x="220" y="100" font-family="Arial" font-size="24" fill="#333" font-weight="bold">Dashboard</text>
  
  <!-- Stats Cards -->
  <rect x="220" y="120" width="180" height="100" rx="4" fill="white" stroke="#e1e5eb" stroke-width="1" />
  <text x="240" y="150" font-family="Arial" font-size="14" fill="#999">Active Machines</text>
  <text x="240" y="180" font-family="Arial" font-size="24" fill="#333" font-weight="bold">24</text>
  
  <rect x="420" y="120" width="180" height="100" rx="4" fill="white" stroke="#e1e5eb" stroke-width="1" />
  <text x="440" y="150" font-family="Arial" font-size="14" fill="#999">Queue Items</text>
  <text x="440" y="180" font-family="Arial" font-size="24" fill="#333" font-weight="bold">12</text>
  
  <rect x="220" y="240" width="180" height="100" rx="4" fill="white" stroke="#e1e5eb" stroke-width="1" />
  <text x="240" y="270" font-family="Arial" font-size="14" fill="#999">Teams</text>
  <text x="240" y="300" font-family="Arial" font-size="24" fill="#333" font-weight="bold">5</text>
  
  <rect x="420" y="240" width="180" height="100" rx="4" fill="white" stroke="#e1e5eb" stroke-width="1" />
  <text x="440" y="270" font-family="Arial" font-size="14" fill="#999">Repositories</text>
  <text x="440" y="300" font-family="Arial" font-size="24" fill="#333" font-weight="bold">8</text>
  
  <!-- System Status -->
  <rect x="220" y="360" width="560" height="200" rx="4" fill="white" stroke="#e1e5eb" stroke-width="1" />
  <text x="240" y="390" font-family="Arial" font-size="16" fill="#333" font-weight="bold">Recent Activities</text>
  
  <!-- Activity List -->
  <line x1="240" y1="410" x2="760" y2="410" stroke="#e1e5eb" stroke-width="1" />
  <text x="240" y="430" font-family="Arial" font-size="14" fill="#333">Machine 'Web Server 1' was added</text>
  <text x="680" y="430" font-family="Arial" font-size="14" fill="#999" text-anchor="end">5 mins ago</text>
  
  <line x1="240" y1="450" x2="760" y2="450" stroke="#e1e5eb" stroke-width="1" />
  <text x="240" y="470" font-family="Arial" font-size="14" fill="#333">New repository 'Frontend Code' created</text>
  <text x="680" y="470" font-family="Arial" font-size="14" fill="#999" text-anchor="end">20 mins ago</text>
  
  <line x1="240" y1="490" x2="760" y2="490" stroke="#e1e5eb" stroke-width="1" />
  <text x="240" y="510" font-family="Arial" font-size="14" fill="#333">Team 'Development Team' was created</text>
  <text x="680" y="510" font-family="Arial" font-size="14" fill="#999" text-anchor="end">1 hour ago</text>
  
  <line x1="240" y1="530" x2="760" y2="530" stroke="#e1e5eb" stroke-width="1" />
  <text x="240" y="550" font-family="Arial" font-size="14" fill="#333">User 'john@acme.com' was activated</text>
  <text x="680" y="550" font-family="Arial" font-size="14" fill="#999" text-anchor="end">2 hours ago</text>
</svg>