<svg viewBox="0 0 800 600" xmlns="http://www.w3.org/2000/svg">
  <!-- Background -->
  <rect width="800" height="600" fill="#f5f7fa" />
  
  <!-- Header -->
  <rect x="0" y="0" width="800" height="60" fill="#2c3e50" />
  <text x="30" y="38" font-family="Arial" font-size="22" fill="white" font-weight="bold">REDIACC</text>
  
  <!-- User Info -->
  <circle cx="760" cy="30" r="20" fill="#4a7aff" />
  <text x="760" y="35" font-family="Arial" font-size="14" text-anchor="middle" fill="white">A</text>
  
  <!-- Sidebar Navigation -->
  <rect x="0" y="60" width="200" height="540" fill="#2c3e50" />
  
  <!-- Navigation Items -->
  <text x="20" y="135" font-family="Arial" font-size="14" fill="#b8c2cc">Dashboard</text>
  <text x="20" y="175" font-family="Arial" font-size="14" fill="#b8c2cc">Infrastructure</text>
  <text x="20" y="215" font-family="Arial" font-size="14" fill="#b8c2cc">Team Management</text>
  <text x="20" y="255" font-family="Arial" font-size="14" fill="#b8c2cc">Resources</text>
  
  <rect x="0" y="270" width="200" height="40" fill="#3498db" />
  <text x="20" y="295" font-family="Arial" font-size="14" fill="white">Operations</text>
  
  <text x="40" y="330" font-family="Arial" font-size="14" fill="#ffffff">Queue Management</text>
  
  <text x="20" y="370" font-family="Arial" font-size="14" fill="#b8c2cc">Administration</text>
  
  <!-- Page Title and Buttons -->
  <text x="220" y="100" font-family="Arial" font-size="24" fill="#333" font-weight="bold">Queue Management</text>
  
  <!-- Selectors -->
  <rect x="220" y="80" width="160" height="35" rx="4" fill="white" stroke="#cfd4da" stroke-width="1" />
  <text x="235" y="104" font-family="Arial" font-size="14" fill="#333">Development Team</text>
  <text x="360" y="104" font-family="Arial" font-size="14" fill="#333">▼</text>
  
  <rect x="400" y="80" width="160" height="35" rx="4" fill="white" stroke="#cfd4da" stroke-width="1" />
  <text x="415" y="104" font-family="Arial" font-size="14" fill="#333">Web Server 1</text>
  <text x="540" y="104" font-family="Arial" font-size="14" fill="#333">▼</text>
  
  <rect x="680" y="80" width="100" height="35" rx="4" fill="#4a7aff" />
  <text x="730" y="104" font-family="Arial" font-size="14" text-anchor="middle" fill="white" font-weight="bold">Add Item</text>
  
  <!-- Table Header -->
  <rect x="220" y="130" width="560" height="40" rx="4" fill="#f1f5f9" />
  <text x="240" y="155" font-family="Arial" font-size="14" fill="#333" font-weight="bold">Queue ID</text>
  <text x="320" y="155" font-family="Arial" font-size="14" fill="#333" font-weight="bold">Machine</text>
  <text x="410" y="155" font-family="Arial" font-size="14" fill="#333" font-weight="bold">Submission Time</text>
  <text x="550" y="155" font-family="Arial" font-size="14" fill="#333" font-weight="bold">Status</text>
  <text x="650" y="155" font-family="Arial" font-size="14" fill="#333" font-weight="bold">Response</text>
  <text x="750" y="155" font-family="Arial" font-size="14" fill="#333" font-weight="bold">Actions</text>
  
  <!-- Table Rows -->
  <rect x="220" y="170" width="560" height="50" fill="white" stroke="#e1e5eb" stroke-width="1" />
  <text x="240" y="200" font-family="Arial" font-size="14" fill="#333">1245</text>
  <text x="320" y="200" font-family="Arial" font-size="14" fill="#333">Web Server 1</text>
  <text x="410" y="200" font-family="Arial" font-size="14" fill="#333">2025-04-25 09:30</text>
  <rect x="550" y="185" width="70" height="25" rx="4" fill="#4caf50" fill-opacity="0.2" />
  <text x="585" y="202" font-family="Arial" font-size="12" fill="#4caf50" text-anchor="middle">Done</text>
  <text x="650" y="200" font-family="Arial" font-size="14" fill="#333">✓</text>
  <text x="740" y="200" font-family="Arial" font-size="14" fill="#4a7aff">⋮</text>
  
  <rect x="220" y="220" width="560" height="50" fill="white" stroke="#e1e5eb" stroke-width="1" />
  <text x="240" y="250" font-family="Arial" font-size="14" fill="#333">1246</text>
  <text x="320" y="250" font-family="Arial" font-size="14" fill="#333">Web Server 1</text>
  <text x="410" y="250" font-family="Arial" font-size="14" fill="#333">2025-04-25 09:35</text>
  <rect x="550" y="235" width="80" height="25" rx="4" fill="#ff9800" fill-opacity="0.2" />
  <text x="590" y="252" font-family="Arial" font-size="12" fill="#ff9800" text-anchor="middle">Pending</text>
  <text x="650" y="250" font-family="Arial" font-size="14" fill="#333">—</text>
  <text x="740" y="250" font-family="Arial" font-size="14" fill="#4a7aff">⋮</text>
  
  <rect x="220" y="270" width="560" height="50" fill="white" stroke="#e1e5eb" stroke-width="1" />
  <text x="240" y="300" font-family="Arial" font-size="14" fill="#333">1247</text>
  <text x="320" y="300" font-family="Arial" font-size="14" fill="#333">Web Server 2</text>
  <text x="410" y="300" font-family="Arial" font-size="14" fill="#333">2025-04-25 09:40</text>
  <rect x="550" y="285" width="80" height="25" rx="4" fill="#ff9800" fill-opacity="0.2" />
  <text x="590" y="302" font-family="Arial" font-size="12" fill="#ff9800" text-anchor="middle">Pending</text>
  <text x="650" y="300" font-family="Arial" font-size="14" fill="#333">—</text>
  <text x="740" y="300" font-family="Arial" font-size="14" fill="#4a7aff">⋮</text>
  
  <rect x="220" y="320" width="560" height="50" fill="white" stroke="#e1e5eb" stroke-width="1" />
  <text x="240" y="350" font-family="Arial" font-size="14" fill="#333">1244</text>
  <text x="320" y="350" font-family="Arial" font-size="14" fill="#333">Web Server 1</text>
  <text x="410" y="350" font-family="Arial" font-size="14" fill="#333">2025-04-25 08:55</text>
  <rect x="550" y="335" width="70" height="25" rx="4" fill="#f44336" fill-opacity="0.2" />
  <text x="585" y="352" font-family="Arial" font-size="12" fill="#f44336" text-anchor="middle">Error</text>
  <text x="650" y="350" font-family="Arial" font-size="14" fill="#333">✗</text>
  <text x="740" y="350" font-family="Arial" font-size="14" fill="#4a7aff">⋮</text>
  
  <!-- Action Menu (Dropdown) -->
  <rect x="700" y="205" width="120" height="100" rx="4" fill="white" stroke="#e1e5eb" stroke-width="1" />
  <text x="720" y="230" font-family="Arial" font-size="14" fill="#333">View Details</text>
  <text x="720" y="260" font-family="Arial" font-size="14" fill="#333">Respond</text>
  <text x="720" y="290" font-family="Arial" font-size="14" fill="#ff4a4a">Remove</text>
  
  <!-- Respond to Queue Item Modal -->
  <rect x="200" y="150" width="400" height="300" rx="8" fill="white" stroke="#e1e5eb" stroke-width="1" />
  <rect x="200" y="150" width="400" height="50" rx="8" fill="#f1f5f9" />
  <text x="220" y="180" font-family="Arial" font-size="16" fill="#333" font-weight="bold">Respond to Queue Item</text>
  <text x="580" y="180" font-family="Arial" font-size="16" fill="#999">×</text>
  
  <!-- Queue Item Details -->
  <text x="220" y="220" font-family="Arial" font-size="14" fill="#333">Queue ID: 1246</text>
  <text x="220" y="245" font-family="Arial" font-size="14" fill="#333">Machine: Web Server 1</text>
  <text x="220" y="270" font-family="Arial" font-size="14" fill="#333">Submitted: 2025-04-25 09:35</text>
  
  <!-- Response Input -->
  <text x="220" y="305" font-family="Arial" font-size="14" fill="#333">Response Data (Encrypted):</text>
  <rect x="220" y="315" width="360" height="80" rx="4" fill="white" stroke="#cfd4da" stroke-width="1" />
  <circle cx="570" cy="315" r="10" fill="#f1f5f9" />
  <text x="570" y="320" font-family="Arial" font-size="12" text-anchor="middle" fill="#666">🔒</text>
  
  <!-- Submit Button -->
  <rect x="470" y="405" width="110" height="35" rx="4" fill="#4a7aff" />
  <text x="525" y="428" font-family="Arial" font-size="14" text-anchor="middle" fill="white" font-weight="bold">Submit</text>
  
  <!-- Add Queue Item Modal -->
  <rect x="150" y="120" width="500" height="360" rx="8" fill="white" stroke="#e1e5eb" stroke-width="1" display="none" />
  <rect x="150" y="120" width="500" height="50" rx="8" fill="#f1f5f9" display="none" />
  <text x="170" y="150" font-family="Arial" font-size="16" fill="#333" font-weight="bold" display="none">Add Queue Item</text>
  <text x="630" y="150" font-family="Arial" font-size="16" fill="#999" display="none">×</text>
  
  <!-- Form Fields -->
  <text x="170" y="190" font-family="Arial" font-size="14" fill="#333" display="none">Machine:</text>
  <rect x="170" y="200" width="460" height="35" rx="4" fill="white" stroke="#cfd4da" stroke-width="1" display="none" />
  <text x="185" y="223" font-family="Arial" font-size="14" fill="#333" display="none">Web Server 1</text>
  <text x="610" y="223" font-family="Arial" font-size="14" fill="#333" display="none">▼</text>
  
  <text x="170" y="255" font-family="Arial" font-size="14" fill="#333" display="none">Priority:</text>
  <rect x="170" y="265" width="460" height="35" rx="4" fill="white" stroke="#cfd4da" stroke-width="1" display="none" />
  <text x="185" y="288" font-family="Arial" font-size="14" fill="#333" display="none">Normal</text>
  <text x="250" y="288" font-family="Arial" font-size="14" fill="#333" display="none">▼</text>
  
  <!-- Task Details (with lock icon to indicate encryption) -->
  <text x="170" y="320" font-family="Arial" font-size="14" fill="#333" display="none">Task Parameters (Encrypted):</text>
  <rect x="170" y="330" width="460" height="100" rx="4" fill="white" stroke="#cfd4da" stroke-width="1" display="none" />
  <circle cx="620" cy="330" r="10" fill="#f1f5f9" display="none" />
  <text x="620" y="335" font-family="Arial" font-size="12" text-anchor="middle" fill="#666" display="none">🔒</text>
  
  <!-- Submit Button -->
  <rect x="520" y="440" width="110" height="35" rx="4" fill="#4a7aff" display="none" />
  <text x="575" y="463" font-family="Arial" font-size="14" text-anchor="middle" fill="white" font-weight="bold" display="none">Add</text>
</svg>