<svg viewBox="0 0 800 600" xmlns="http://www.w3.org/2000/svg">
  <!-- Background -->
  <rect width="800" height="600" fill="#f5f7fa" />
  
  <!-- Header -->
  <rect x="0" y="0" width="800" height="60" fill="#2c3e50" />
  <text x="30" y="38" font-family="Arial" font-size="22" fill="white" font-weight="bold">REDIACC</text>
  
  <!-- User Info -->
  <circle cx="760" cy="30" r="20" fill="#4a7aff" />
  <text x="760" y="35" font-family="Arial" font-size="14" text-anchor="middle" fill="white">A</text>
  
  <!-- Sidebar Navigation -->
  <rect x="0" y="60" width="200" height="540" fill="#2c3e50" />
  
  <!-- Navigation Items -->
  <text x="20" y="135" font-family="Arial" font-size="14" fill="#b8c2cc">Dashboard</text>
  
  <rect x="0" y="150" width="200" height="40" fill="#3498db" />
  <text x="20" y="175" font-family="Arial" font-size="14" fill="white">Infrastructure</text>
  
  <text x="40" y="210" font-family="Arial" font-size="14" fill="#ffffff">Regions</text>
  <text x="40" y="240" font-family="Arial" font-size="14" fill="#b8c2cc">Bridges</text>
  <text x="40" y="270" font-family="Arial" font-size="14" fill="#b8c2cc">Machines</text>
  
  <text x="20" y="310" font-family="Arial" font-size="14" fill="#b8c2cc">Team Management</text>
  <text x="20" y="350" font-family="Arial" font-size="14" fill="#b8c2cc">Resources</text>
  <text x="20" y="390" font-family="Arial" font-size="14" fill="#b8c2cc">Operations</text>
  <text x="20" y="430" font-family="Arial" font-size="14" fill="#b8c2cc">Administration</text>
  
  <!-- Page Title and Buttons -->
  <text x="220" y="100" font-family="Arial" font-size="24" fill="#333" font-weight="bold">Regions</text>
  
  <rect x="680" y="80" width="100" height="35" rx="4" fill="#4a7aff" />
  <text x="730" y="104" font-family="Arial" font-size="14" text-anchor="middle" fill="white" font-weight="bold">Add Region</text>
  
  <!-- Table Header -->
  <rect x="220" y="130" width="560" height="40" rx="4" fill="#f1f5f9" />
  <text x="240" y="155" font-family="Arial" font-size="14" fill="#333" font-weight="bold">Region Name</text>
  <text x="450" y="155" font-family="Arial" font-size="14" fill="#333" font-weight="bold">Bridge Count</text>
  <text x="590" y="155" font-family="Arial" font-size="14" fill="#333" font-weight="bold">Creation Date</text>
  <text x="730" y="155" font-family="Arial" font-size="14" fill="#333" font-weight="bold">Actions</text>
  
  <!-- Table Rows -->
  <rect x="220" y="170" width="560" height="50" fill="white" stroke="#e1e5eb" stroke-width="1" />
  <text x="240" y="200" font-family="Arial" font-size="14" fill="#333">West Coast Data Center</text>
  <text x="450" y="200" font-family="Arial" font-size="14" fill="#333">3</text>
  <text x="590" y="200" font-family="Arial" font-size="14" fill="#333">2025-04-20</text>
  <text x="720" y="200" font-family="Arial" font-size="14" fill="#4a7aff">Edit</text>
  <text x="760" y="200" font-family="Arial" font-size="14" fill="#ff4a4a">Remove</text>
  
  <rect x="220" y="220" width="560" height="50" fill="white" stroke="#e1e5eb" stroke-width="1" />
  <text x="240" y="250" font-family="Arial" font-size="14" fill="#333">East Coast Data Center</text>
  <text x="450" y="250" font-family="Arial" font-size="14" fill="#333">2</text>
  <text x="590" y="250" font-family="Arial" font-size="14" fill="#333">2025-04-21</text>
  <text x="720" y="250" font-family="Arial" font-size="14" fill="#4a7aff">Edit</text>
  <text x="760" y="250" font-family="Arial" font-size="14" fill="#ff4a4a">Remove</text>
  
  <rect x="220" y="270" width="560" height="50" fill="white" stroke="#e1e5eb" stroke-width="1" />
  <text x="240" y="300" font-family="Arial" font-size="14" fill="#333">European Data Center</text>
  <text x="450" y="300" font-family="Arial" font-size="14" fill="#333">1</text>
  <text x="590" y="300" font-family="Arial" font-size="14" fill="#333">2025-04-22</text>
  <text x="720" y="300" font-family="Arial" font-size="14" fill="#4a7aff">Edit</text>
  <text x="760" y="300" font-family="Arial" font-size="14" fill="#ff4a4a">Remove</text>
  
  <rect x="220" y="320" width="560" height="50" fill="white" stroke="#e1e5eb" stroke-width="1" />
  <text x="240" y="350" font-family="Arial" font-size="14" fill="#333">Default Region</text>
  <text x="450" y="350" font-family="Arial" font-size="14" fill="#333">1</text>
  <text x="590" y="350" font-family="Arial" font-size="14" fill="#333">2025-04-23</text>
  <text x="720" y="350" font-family="Arial" font-size="14" fill="#4a7aff">Edit</text>
  <text x="760" y="350" font-family="Arial" font-size="14" fill="#ff4a4a">Remove</text>
</svg>