<svg viewBox="0 0 800 600" xmlns="http://www.w3.org/2000/svg">
  <!-- Background -->
  <rect width="800" height="600" fill="#f5f7fa" />
  
  <!-- Header -->
  <rect x="0" y="0" width="800" height="60" fill="#2c3e50" />
  <text x="30" y="38" font-family="Arial" font-size="22" fill="white" font-weight="bold">REDIACC</text>
  
  <!-- User Info -->
  <circle cx="760" cy="30" r="20" fill="#4a7aff" />
  <text x="760" y="35" font-family="Arial" font-size="14" text-anchor="middle" fill="white">A</text>
  
  <!-- Sidebar Navigation -->
  <rect x="0" y="60" width="200" height="540" fill="#2c3e50" />
  
  <!-- Navigation Items -->
  <text x="20" y="135" font-family="Arial" font-size="14" fill="#b8c2cc">Dashboard</text>
  <text x="20" y="175" font-family="Arial" font-size="14" fill="#b8c2cc">Infrastructure</text>
  <text x="20" y="215" font-family="Arial" font-size="14" fill="#b8c2cc">Team Management</text>
  
  <rect x="0" y="230" width="200" height="40" fill="#3498db" />
  <text x="20" y="255" font-family="Arial" font-size="14" fill="white">Resources</text>
  
  <text x="40" y="290" font-family="Arial" font-size="14" fill="#b8c2cc">Repositories</text>
  <text x="40" y="320" font-family="Arial" font-size="14" fill="#b8c2cc">Storage</text>
  <text x="40" y="350" font-family="Arial" font-size="14" fill="#ffffff">Schedules</text>
  
  <text x="20" y="390" font-family="Arial" font-size="14" fill="#b8c2cc">Operations</text>
  <text x="20" y="430" font-family="Arial" font-size="14" fill="#b8c2cc">Administration</text>
  
  <!-- Page Title and Buttons -->
  <text x="220" y="100" font-family="Arial" font-size="24" fill="#333" font-weight="bold">Schedules</text>
  
  <!-- Team Selector -->
  <rect x="220" y="80" width="200" height="35" rx="4" fill="white" stroke="#cfd4da" stroke-width="1" />
  <text x="235" y="104" font-family="Arial" font-size="14" fill="#333">Operations Team</text>
  <text x="400" y="104" font-family="Arial" font-size="14" fill="#333">▼</text>
  
  <rect x="680" y="80" width="100" height="35" rx="4" fill="#4a7aff" />
  <text x="730" y="104" font-family="Arial" font-size="14" text-anchor="middle" fill="white" font-weight="bold">Add Schedule</text>
  
  <!-- Table Header -->
  <rect x="220" y="130" width="560" height="40" rx="4" fill="#f1f5f9" />
  <text x="240" y="155" font-family="Arial" font-size="14" fill="#333" font-weight="bold">Schedule Name</text>
  <text x="400" y="155" font-family="Arial" font-size="14" fill="#333" font-weight="bold">Status</text>
  <text x="490" y="155" font-family="Arial" font-size="14" fill="#333" font-weight="bold">Next Run</text>
  <text x="600" y="155" font-family="Arial" font-size="14" fill="#333" font-weight="bold">Last Run</text>
  <text x="730" y="155" font-family="Arial" font-size="14" fill="#333" font-weight="bold">Actions</text>
  
  <!-- Table Rows -->
  <rect x="220" y="170" width="560" height="50" fill="white" stroke="#e1e5eb" stroke-width="1" />
  <text x="240" y="200" font-family="Arial" font-size="14" fill="#333">Nightly Backup</text>
  <rect x="400" y="185" width="70" height="25" rx="4" fill="#4caf50" fill-opacity="0.2" />
  <text x="435" y="202" font-family="Arial" font-size="12" fill="#4caf50" text-anchor="middle">Active</text>
  <text x="490" y="200" font-family="Arial" font-size="14" fill="#333">2025-04-26 01:00</text>
  <text x="600" y="200" font-family="Arial" font-size="14" fill="#333">2025-04-25 01:00</text>
  <text x="720" y="200" font-family="Arial" font-size="14" fill="#4a7aff">Edit</text>
  <text x="760" y="200" font-family="Arial" font-size="14" fill="#ff4a4a">Remove</text>
  
  <rect x="220" y="220" width="560" height="50" fill="white" stroke="#e1e5eb" stroke-width="1" />
  <text x="240" y="250" font-family="Arial" font-size="14" fill="#333">Weekly Cleanup</text>
  <rect x="400" y="235" width="70" height="25" rx="4" fill="#4caf50" fill-opacity="0.2" />
  <text x="435" y="252" font-family="Arial" font-size="12" fill="#4caf50" text-anchor="middle">Active</text>
  <text x="490" y="250" font-family="Arial" font-size="14" fill="#333">2025-04-28 03:00</text>
  <text x="600" y="250" font-family="Arial" font-size="14" fill="#333">2025-04-21 03:00</text>
  <text x="720" y="250" font-family="Arial" font-size="14" fill="#4a7aff">Edit</text>
  <text x="760" y="250" font-family="Arial" font-size="14" fill="#ff4a4a">Remove</text>
  
  <rect x="220" y="270" width="560" height="50" fill="white" stroke="#e1e5eb" stroke-width="1" />
  <text x="240" y="300" font-family="Arial" font-size="14" fill="#333">Log Rotation</text>
  <rect x="400" y="285" width="70" height="25" rx="4" fill="#f44336" fill-opacity="0.2" />
  <text x="435" y="302" font-family="Arial" font-size="12" fill="#f44336" text-anchor="middle">Paused</text>
  <text x="490" y="300" font-family="Arial" font-size="14" fill="#333">-</text>
  <text x="600" y="300" font-family="Arial" font-size="14" fill="#333">2025-04-24 04:15</text>
  <text x="720" y="300" font-family="Arial" font-size="14" fill="#4a7aff">Edit</text>
  <text x="760" y="300" font-family="Arial" font-size="14" fill="#ff4a4a">Remove</text>
  
  <rect x="220" y="320" width="560" height="50" fill="white" stroke="#e1e5eb" stroke-width="1" />
  <text x="240" y="350" font-family="Arial" font-size="14" fill="#333">Database Snapshot</text>
  <rect x="400" y="335" width="70" height="25" rx="4" fill="#4caf50" fill-opacity="0.2" />
  <text x="435" y="352" font-family="Arial" font-size="12" fill="#4caf50" text-anchor="middle">Active</text>
  <text x="490" y="350" font-family="Arial" font-size="14" fill="#333">2025-04-25 12:00</text>
  <text x="600" y="350" font-family="Arial" font-size="14" fill="#333">2025-04-25 06:00</text>
  <text x="720" y="350" font-family="Arial" font-size="14" fill="#4a7aff">Edit</text>
  <text x="760" y="350" font-family="Arial" font-size="14" fill="#ff4a4a">Remove</text>
  
  <!-- Add Schedule Modal -->
  <rect x="200" y="150" width="400" height="350" rx="8" fill="white" stroke="#e1e5eb" stroke-width="1" />
  <rect x="200" y="150" width="400" height="50" rx="8" fill="#f1f5f9" />
  <text x="220" y="180" font-family="Arial" font-size="16" fill="#333" font-weight="bold">Add Schedule</text>
  <text x="580" y="180" font-family="Arial" font-size="16" fill="#999">×</text>
  
  <!-- Form Fields -->
  <text x="220" y="220" font-family="Arial" font-size="14" fill="#333">Schedule Name:</text>
  <rect x="220" y="230" width="360" height="35" rx="4" fill="white" stroke="#cfd4da" stroke-width="1" />
  
  <text x="220" y="285" font-family="Arial" font-size="14" fill="#333">Schedule Pattern:</text>
  <rect x="220" y="295" width="360" height="35" rx="4" fill="white" stroke="#cfd4da" stroke-width="1" />
  <text x="230" y="318" font-family="Arial" font-size="14" fill="#333">0 0 * * *</text>
  <text x="350" y="318" font-family="Arial" font-size="14" fill="#999">(Midnight Daily)</text>
  
  <text x="220" y="350" font-family="Arial" font-size="14" fill="#333">Status:</text>
  <rect x="220" y="360" width="360" height="35" rx="4" fill="white" stroke="#cfd4da" stroke-width="1" />
  <text x="230" y="383" font-family="Arial" font-size="14" fill="#333">Active</text>
  <text x="290" y="383" font-family="Arial" font-size="14" fill="#333">▼</text>
  
  <!-- Vault Fields (with lock icon to indicate encryption) -->
  <text x="220" y="415" font-family="Arial" font-size="14" fill="#333">Task Definition (Encrypted):</text>
  <rect x="220" y="425" width="360" height="35" rx="4" fill="white" stroke="#cfd4da" stroke-width="1" />
  <circle cx="570" cy="442" r="10" fill="#f1f5f9" />
  <text x="570" y="447" font-family="Arial" font-size="12" text-anchor="middle" fill="#666">🔒</text>
  
  <!-- Submit Button -->
  <rect x="470" y="450" width="110" height="35" rx="4" fill="#4a7aff" />
  <text x="525" y="473" font-family="Arial" font-size="14" text-anchor="middle" fill="white" font-weight="bold">Save</text>
</svg>