<svg viewBox="0 0 800 600" xmlns="http://www.w3.org/2000/svg">
  <!-- Background -->
  <rect width="800" height="600" fill="#f5f7fa" />
  
  <!-- Header -->
  <rect x="0" y="0" width="800" height="60" fill="#2c3e50" />
  <text x="30" y="38" font-family="Arial" font-size="22" fill="white" font-weight="bold">REDIACC</text>
  
  <!-- User Info -->
  <circle cx="760" cy="30" r="20" fill="#4a7aff" />
  <text x="760" y="35" font-family="Arial" font-size="14" text-anchor="middle" fill="white">A</text>
  
  <!-- Sidebar Navigation -->
  <rect x="0" y="60" width="200" height="540" fill="#2c3e50" />
  
  <!-- Navigation Items -->
  <text x="20" y="135" font-family="Arial" font-size="14" fill="#b8c2cc">Dashboard</text>
  <text x="20" y="175" font-family="Arial" font-size="14" fill="#b8c2cc">Infrastructure</text>
  <text x="20" y="215" font-family="Arial" font-size="14" fill="#b8c2cc">Team Management</text>
  <text x="20" y="255" font-family="Arial" font-size="14" fill="#b8c2cc">Resources</text>
  <text x="20" y="295" font-family="Arial" font-size="14" fill="#b8c2cc">Operations</text>
  
  <rect x="0" y="310" width="200" height="40" fill="#3498db" />
  <text x="20" y="335" font-family="Arial" font-size="14" fill="white">Administration</text>
  
  <text x="40" y="370" font-family="Arial" font-size="14" fill="#b8c2cc">Company Settings</text>
  <text x="40" y="400" font-family="Arial" font-size="14" fill="#ffffff">User Management</text>
  
  <!-- Page Title and Buttons -->
  <text x="220" y="100" font-family="Arial" font-size="24" fill="#333" font-weight="bold">User Management</text>
  
  <rect x="680" y="80" width="100" height="35" rx="4" fill="#4a7aff" />
  <text x="730" y="104" font-family="Arial" font-size="14" text-anchor="middle" fill="white" font-weight="bold">Add User</text>
  
  <!-- Table Header -->
  <rect x="220" y="130" width="560" height="40" rx="4" fill="#f1f5f9" />
  <text x="240" y="155" font-family="Arial" font-size="14" fill="#333" font-weight="bold">Email</text>
  <text x="430" y="155" font-family="Arial" font-size="14" fill="#333" font-weight="bold">Status</text>
  <text x="530" y="155" font-family="Arial" font-size="14" fill="#333" font-weight="bold">Created Date</text>
  <text x="650" y="155" font-family="Arial" font-size="14" fill="#333" font-weight="bold">Last Login</text>
  <text x="750" y="155" font-family="Arial" font-size="14" fill="#333" font-weight="bold">Actions</text>
  
  <!-- Table Rows -->
  <rect x="220" y="170" width="560" height="50" fill="white" stroke="#e1e5eb" stroke-width="1" />
  <text x="240" y="200" font-family="Arial" font-size="14" fill="#333">admin@acme.com</text>
  <rect x="430" y="185" width="70" height="25" rx="4" fill="#4caf50" fill-opacity="0.2" />
  <text x="465" y="202" font-family="Arial" font-size="12" fill="#4caf50" text-anchor="middle">Active</text>
  <text x="530" y="200" font-family="Arial" font-size="14" fill="#333">2025-04-23</text>
  <text x="650" y="200" font-family="Arial" font-size="14" fill="#333">2025-04-25 09:30</text>
  <text x="740" y="200" font-family="Arial" font-size="14" fill="#4a7aff">⋮</text>
  
  <rect x="220" y="220" width="560" height="50" fill="white" stroke="#e1e5eb" stroke-width="1" />
  <text x="240" y="250" font-family="Arial" font-size="14" fill="#333">john.smith@acme.com</text>
  <rect x="430" y="235" width="70" height="25" rx="4" fill="#4caf50" fill-opacity="0.2" />
  <text x="465" y="252" font-family="Arial" font-size="12" fill="#4caf50" text-anchor="middle">Active</text>
  <text x="530" y="250" font-family="Arial" font-size="14" fill="#333">2025-04-23</text>
  <text x="650" y="250" font-family="Arial" font-size="14" fill="#333">2025-04-25 09:15</text>
  <text x="740" y="250" font-family="Arial" font-size="14" fill="#4a7aff">⋮</text>
  
  <rect x="220" y="270" width="560" height="50" fill="white" stroke="#e1e5eb" stroke-width="1" />
  <text x="240" y="300" font-family="Arial" font-size="14" fill="#333">sarah.jones@acme.com</text>
  <rect x="430" y="285" width="70" height="25" rx="4" fill="#4caf50" fill-opacity="0.2" />
  <text x="465" y="302" font-family="Arial" font-size="12" fill="#4caf50" text-anchor="middle">Active</text>
  <text x="530" y="300" font-family="Arial" font-size="14" fill="#333">2025-04-23</text>
  <text x="650" y="300" font-family="Arial" font-size="14" fill="#333">2025-04-25 08:45</text>
  <text x="740" y="300" font-family="Arial" font-size="14" fill="#4a7aff">⋮</text>
  
  <rect x="220" y="320" width="560" height="50" fill="white" stroke="#e1e5eb" stroke-width="1" />
  <text x="240" y="350" font-family="Arial" font-size="14" fill="#333">mike.white@acme.com</text>
  <rect x="430" y="335" width="70" height="25" rx="4" fill="#4caf50" fill-opacity="0.2" />
  <text x="465" y="352" font-family="Arial" font-size="12" fill="#4caf50" text-anchor="middle">Active</text>
  <text x="530" y="350" font-family="Arial" font-size="14" fill="#333">2025-04-24</text>
  <text x="650" y="350" font-family="Arial" font-size="14" fill="#333">2025-04-24 17:30</text>
  <text x="740" y="350" font-family="Arial" font-size="14" fill="#4a7aff">⋮</text>
  
  <rect x="220" y="370" width="560" height="50" fill="white" stroke="#e1e5eb" stroke-width="1" />
  <text x="240" y="400" font-family="Arial" font-size="14" fill="#333">rachel.green@acme.com</text>
  <rect x="430" y="385" width="70" height="25" rx="4" fill="#ff9800" fill-opacity="0.2" />
  <text x="465" y="402" font-family="Arial" font-size="12" fill="#ff9800" text-anchor="middle">Pending</text>
  <text x="530" y="400" font-family="Arial" font-size="14" fill="#333">2025-04-25</text>
  <text x="650" y="400" font-family="Arial" font-size="14" fill="#333">-</text>
  <text x="740" y="400" font-family="Arial" font-size="14" fill="#4a7aff">⋮</text>
  
  <rect x="220" y="420" width="560" height="50" fill="white" stroke="#e1e5eb" stroke-width="1" />
  <text x="240" y="450" font-family="Arial" font-size="14" fill="#333">alex.chen@acme.com</text>
  <rect x="430" y="435" width="90" height="25" rx="4" fill="#f44336" fill-opacity="0.2" />
  <text x="475" y="452" font-family="Arial" font-size="12" fill="#f44336" text-anchor="middle">Inactive</text>
  <text x="530" y="450" font-family="Arial" font-size="14" fill="#333">2025-04-21</text>
  <text x="650" y="450" font-family="Arial" font-size="14" fill="#333">2025-04-23 14:20</text>
  <text x="740" y="450" font-family="Arial" font-size="14" fill="#4a7aff">⋮</text>
  
  <!-- Action Menu (Dropdown) -->
  <rect x="700" y="205" width="120" height="120" rx="4" fill="white" stroke="#e1e5eb" stroke-width="1" />
  <text x="720" y="230" font-family="Arial" font-size="14" fill="#333">Reset Password</text>
  <text x="720" y="260" font-family="Arial" font-size="14" fill="#333">Activate</text>
  <text x="720" y="290" font-family="Arial" font-size="14" fill="#333">Deactivate</text>
  <text x="720" y="320" font-family="Arial" font-size="14" fill="#ff4a4a">Remove</text>
  
  <!-- Add User Modal -->
  <rect x="200" y="150" width="400" height="300" rx="8" fill="white" stroke="#e1e5eb" stroke-width="1" display="none" />
  <rect x="200" y="150" width="400" height="50" rx="8" fill="#f1f5f9" display="none" />
  <text x="220" y="180" font-family="Arial" font-size="16" fill="#333" font-weight="bold" display="none">Add New User</text>
  <text x="580" y="180" font-family="Arial" font-size="16" fill="#999" display="none">×</text>
  
  <!-- Form Fields -->
  <text x="220" y="220" font-family="Arial" font-size="14" fill="#333" display="none">Email Address:</text>
  <rect x="220" y="230" width="360" height="35" rx="4" fill="white" stroke="#cfd4da" stroke-width="1" display="none" />
  
  <text x="220" y="285" font-family="Arial" font-size="14" fill="#333" display="none">Password:</text>
  <rect x="220" y="295" width="360" height="35" rx="4" fill="white" stroke="#cfd4da" stroke-width="1" display="none" />
  
  <text x="220" y="350" font-family="Arial" font-size="14" fill="#333" display="none">Confirm Password:</text>
  <rect x="220" y="360" width="360" height="35" rx="4" fill="white" stroke="#cfd4da" stroke-width="1" display="none" />
  
  <!-- Submit Button -->
  <rect x="470" y="400" width="110" height="35" rx="4" fill="#4a7aff" display="none" />
  <text x="525" y="423" font-family="Arial" font-size="14" text-anchor="middle" fill="white" font-weight="bold" display="none">Add User</text>
</svg>